/* XPM */
static char * window_unfocus_button_other_xpm[] = {
"18 18 106 2",
"  	c None",
". 	c #FFFFFF",
"+ 	c #FAFAFA",
"@ 	c #C2C2C2",
"# 	c #A3A3A3",
"$ 	c #7B7B7B",
"% 	c #656565",
"& 	c #666666",
"* 	c #9E9E9E",
"= 	c #C7C7C7",
"- 	c #A4A4A4",
"; 	c #8E8E8E",
"> 	c #909090",
", 	c #ACACAC",
"' 	c #B8B8B8",
") 	c #BBBBBB",
"! 	c #A9A9A9",
"~ 	c #999999",
"{ 	c #848484",
"] 	c #F8F8F8",
"^ 	c #AEAEAE",
"/ 	c #7A7A7A",
"( 	c #9D9D9D",
"_ 	c #BEBEBE",
": 	c #E0E0E0",
"< 	c #E4E4E4",
"[ 	c #DCDCDC",
"} 	c #C9C9C9",
"| 	c #979797",
"1 	c #7E7E7E",
"2 	c #ADADAD",
"3 	c #F7F7F7",
"4 	c #CACACA",
"5 	c #828282",
"6 	c #8C8C8C",
"7 	c #BFBFBF",
"8 	c #E2E2E2",
"9 	c #DDDDDD",
"0 	c #E7E7E7",
"a 	c #E5E5E5",
"b 	c #D6D6D6",
"c 	c #C3C3C3",
"d 	c #8F8F8F",
"e 	c #757575",
"f 	c #CCCCCC",
"g 	c #F6F6F6",
"h 	c #A6A6A6",
"i 	c #8A8A8A",
"j 	c #B1B1B1",
"k 	c #BDBDBD",
"l 	c #D0D0D0",
"m 	c #D1D1D1",
"n 	c #D5D5D5",
"o 	c #D7D7D7",
"p 	c #C8C8C8",
"q 	c #B0B0B0",
"r 	c #818181",
"s 	c #AAAAAA",
"t 	c #F5F5F5",
"u 	c #A0A0A0",
"v 	c #C6C6C6",
"w 	c #D4D4D4",
"x 	c #CBCBCB",
"y 	c #CFCFCF",
"z 	c #BABABA",
"A 	c #808080",
"B 	c #F4F4F4",
"C 	c #D3D3D3",
"D 	c #D9D9D9",
"E 	c #D2D2D2",
"F 	c #B9B9B9",
"G 	c #F3F3F3",
"H 	c #DFDFDF",
"I 	c #E1E1E1",
"J 	c #F1F1F1",
"K 	c #B6B6B6",
"L 	c #EBEBEB",
"M 	c #EAEAEA",
"N 	c #A7A7A7",
"O 	c #EEEEEE",
"P 	c #B4B4B4",
"Q 	c #D8D8D8",
"R 	c #E9E9E9",
"S 	c #F2F2F2",
"T 	c #F0F0F0",
"U 	c #E6E6E6",
"V 	c #EDEDED",
"W 	c #E3E3E3",
"X 	c #B7B7B7",
"Y 	c #ECECEC",
"Z 	c #EDF0F5",
"` 	c #CECECE",
" .	c #E8E8E8",
"..	c #EFEFEF",
"+.	c #B2B2B2",
"@.	c #F3F6FB",
"#.	c #B5B5B5",
"$.	c #C0C0C0",
"%.	c #F2F3F7",
"&.	c #ECEDF1",
"*.	c #B3B3B3",
"=.	c #ABABAB",
"-.	c #F0F0F2",
";.	c #EAEBED",
">.	c #F5F6F8",
",.	c #EFF0F2",
". . . . . . . . . . . . . . . . . . ",
"+ + + + + + + + + + + + + + + + + + ",
"+ + + + + @ # $ % & $ * = + + + + + ",
"+ + + + - ; > , ' ) ! ~ { - + + + + ",
"] ] ] ^ / ( _ : < < [ } | 1 2 ] ] ] ",
"3 3 4 5 6 7 8 9 0 9 a b c d e f 3 3 ",
"g g h i j k l m b n o c p q r s g g ",
"t t { u c v p w x m y m } z h A t t ",
"B B { ^ p w m C [ D E [ f 7 F 5 B B ",
"G G > ' l w H I : < < D b o F ; G G ",
"J J # K D H : 8 < L M a 8 C F N J J ",
"O O P ' n Q R t S T U : 8 Q 7 , O O ",
"V V } 2 x W T I t V V G a @ X 4 V V ",
"Y Y Z P ^ ` R S R  .V ..b +.X Z Y Y ",
"R R R @.X K #.y 8 < m K j $.@.R R R ",
" . . .%.&.` j *.| =.#.z f &.%. . . .",
"< < < < -.-.;.>.,.,.>.;.-.-.< < < < ",
"a a a a a a a a a a a a a a a a a a "};
