/* XPM */
static char * window_focus_button_other_xpm[] = {
"18 18 93 2",
"  	c None",
". 	c #F8F8F8",
"+ 	c #EFEFEF",
"@ 	c #E7E7E7",
"# 	c #C2C2C2",
"$ 	c #A3A3A3",
"% 	c #7B7B7B",
"& 	c #656565",
"* 	c #666666",
"= 	c #9E9E9E",
"- 	c #C7C7C7",
"; 	c #E6E6E6",
"> 	c #A4A4A4",
", 	c #8E8E8E",
"' 	c #909090",
") 	c #ACACAC",
"! 	c #B8B8B8",
"~ 	c #BBBBBB",
"{ 	c #A9A9A9",
"] 	c #999999",
"^ 	c #848484",
"/ 	c #AEAEAE",
"( 	c #7A7A7A",
"_ 	c #9D9D9D",
": 	c #BEBEBE",
"< 	c #E0E0E0",
"[ 	c #E4E4E4",
"} 	c #DCDCDC",
"| 	c #C9C9C9",
"1 	c #979797",
"2 	c #7E7E7E",
"3 	c #ADADAD",
"4 	c #CACACA",
"5 	c #828282",
"6 	c #8C8C8C",
"7 	c #BFBFBF",
"8 	c #E2E2E2",
"9 	c #DDDDDD",
"0 	c #E5E5E5",
"a 	c #D6D6D6",
"b 	c #C3C3C3",
"c 	c #8F8F8F",
"d 	c #757575",
"e 	c #CCCCCC",
"f 	c #A6A6A6",
"g 	c #8A8A8A",
"h 	c #B1B1B1",
"i 	c #BDBDBD",
"j 	c #D0D0D0",
"k 	c #D1D1D1",
"l 	c #D5D5D5",
"m 	c #D7D7D7",
"n 	c #C8C8C8",
"o 	c #B0B0B0",
"p 	c #818181",
"q 	c #AAAAAA",
"r 	c #A0A0A0",
"s 	c #C6C6C6",
"t 	c #D4D4D4",
"u 	c #CBCBCB",
"v 	c #CFCFCF",
"w 	c #BABABA",
"x 	c #808080",
"y 	c #DFDFDF",
"z 	c #D3D3D3",
"A 	c #D9D9D9",
"B 	c #D2D2D2",
"C 	c #B9B9B9",
"D 	c #E1E1E1",
"E 	c #DBDBDB",
"F 	c #B6B6B6",
"G 	c #EBEBEB",
"H 	c #EAEAEA",
"I 	c #A7A7A7",
"J 	c #D8D8D8",
"K 	c #B4B4B4",
"L 	c #E9E9E9",
"M 	c #F5F5F5",
"N 	c #F2F2F2",
"O 	c #F0F0F0",
"P 	c #E3E3E3",
"Q 	c #EDEDED",
"R 	c #F3F3F3",
"S 	c #B7B7B7",
"T 	c #CECECE",
"U 	c #E8E8E8",
"V 	c #B2B2B2",
"W 	c #B5B5B5",
"X 	c #C0C0C0",
"Y 	c #DEDEDE",
"Z 	c #B3B3B3",
"` 	c #ABABAB",
" .	c #CDCDCD",
". . . . . . . . . . . . . . . . . . ",
"+ + + + + + + + + + + + + + + + + + ",
"@ @ @ @ @ # $ % & * % = - @ @ @ @ @ ",
"; ; ; ; > , ' ) ! ~ { ] ^ > ; ; ; ; ",
"; ; ; / ( _ : < [ [ } | 1 2 3 ; ; ; ",
"[ [ 4 5 6 7 8 9 @ 9 0 a b c d e [ [ ",
"8 8 f g h i j k a l m b n o p q 8 8 ",
"< < ^ r b s n t u k v k | w f x < < ",
"y y ^ / n t k z } A B } e 7 C 5 y y ",
"9 9 ' ! j t y D < [ [ A a m C , 9 9 ",
"E E $ F A y < 8 [ G H 0 8 z C I E E ",
"J J K ! l J L M N O ; < 8 J 7 ) J J ",
"a a | 3 u P O D M Q Q R 0 # S 4 a a ",
"t t D K / T L N L U Q + a V S } t t ",
"B B A t S F W v 8 [ k F h X k Y B B ",
"v v v 9 B T h Z 1 ` W w e E m v v v ",
" . . . . .A Y ; ; [ Y E J  . . . . .",
"4 4 4 4 4 4 4 4 4 4 4 4 4 4 4 4 4 4 "};
